HIERARCHY
ROOT Hips
{
	OFFSET 0.00 0.00 0.00
	CHANNELS 6 Xposition Yposition Zposition Xrotation Yrotation Zrotation
	JOINT Spine
	{
		OFFSET 0.00000 7.50895 0.00000
		CHANNELS 3 Xrotation Yrotation Zrotation
		JOINT Head
		{
			OFFSET 0.00000 13.86115 0.00000
			CHANNELS 3 Xrotation Yrotation Zrotation
			End Site
			{
				OFFSET 0.00000 4.52755 0.00000
			}
		}
		JOINT LeftShoulder
		{
			OFFSET 0.00000 8.20478 0.00000
			CHANNELS 3 Xrotation Yrotation Zrotation
			JOINT LeftArm
			{
				OFFSET 6.63596 0.00000 0.00000
				CHANNELS 3 Xrotation Yrotation Zrotation
				JOINT LeftForeArm
				{
					OFFSET 10.27422 0.00000 0.00000
					CHANNELS 3 Yrotation Zrotation Xrotation
					JOINT LeftHand
					{
						OFFSET 8.52215 0.00000 0.00000
						CHANNELS 3 Xrotation Yrotation Zrotation
						JOINT LeftHandThumb1
						{
							OFFSET 0.00000 0.00000 0.00000
							CHANNELS 3 Xrotation Zrotation Yrotation
							End Site
							{
								OFFSET 0.00000 0.00000 3.93700
							}
						}
						End Site
						{
							OFFSET 3.93700 0.00000 0.00000
						}
					}
				}
			}
		}
		JOINT RightShoulder
		{
			OFFSET 0.00000 8.20478 0.00000
			CHANNELS 3 Xrotation Yrotation Zrotation
			JOINT RightArm
			{
				OFFSET -6.63596 0.00000 0.00000
				CHANNELS 3 Xrotation Yrotation Zrotation
				JOINT RightForeArm
				{
					OFFSET -10.27422 0.00000 0.00000
					CHANNELS 3 Yrotation Zrotation Xrotation
					JOINT RightHand
					{
						OFFSET -8.52215 0.00000 0.00000
						CHANNELS 3 Xrotation Yrotation Zrotation
						JOINT RightHandThumb1
						{
							OFFSET 0.00000 0.00000 0.00000
							CHANNELS 3 Xrotation Zrotation Yrotation
							End Site
							{
								OFFSET 0.00000 0.00000 3.93700
							}
						}
						End Site
						{
							OFFSET -3.93700 0.00000 0.00000
						}
					}
				}
			}
		}
	}
	JOINT LeftUpLeg
	{
		OFFSET 3.00056 0.00000 0.00000
		CHANNELS 3 Xrotation Yrotation Zrotation
		JOINT LeftLeg
		{
			OFFSET 0.00000 -16.49085 0.00000
			CHANNELS 3 Xrotation Yrotation Zrotation
			JOINT LeftFoot
			{
				OFFSET 0.00000 -14.55658 0.00000
				CHANNELS 3 Xrotation Yrotation Zrotation
				JOINT LeftToeBase
				{
					OFFSET 0.00000 -1.25038 4.66650
					CHANNELS 3 Xrotation Yrotation Zrotation
					End Site
					{
						OFFSET 0.00000 0.00000 2.95275
					}
				}
			}
		}
	}
	JOINT RightUpLeg
	{
		OFFSET -3.00056 0.00000 0.00000
		CHANNELS 3 Xrotation Yrotation Zrotation
		JOINT RightLeg
		{
			OFFSET 0.00000 -16.49085 0.00000
			CHANNELS 3 Xrotation Yrotation Zrotation
			JOINT RightFoot
			{
				OFFSET 0.00000 -14.55658 0.00000
				CHANNELS 3 Xrotation Yrotation Zrotation
				JOINT RightToeBase
				{
					OFFSET 0.00000 -1.25038 4.66650
					CHANNELS 3 Xrotation Yrotation Zrotation
					End Site
					{
						OFFSET 0.00000 0.00000 2.95275
					}
				}
			}
		}
	}
}
MOTION
Frames: 19
Frame Time: 0.008333
 -8.9177 32.7180 -3.7772 46.7688 -74.2752 44.0721 -12.7699 4.5364 0.9654 -9.0910 -6.0362 11.7353 9.6570 22.2735 25.5074 -32.9885 -0.4630 -30.2301 -14.0523 -0.0000 7.7283 -1.0276 29.7618 2.0694 33.1476 -0.0000 26.2537 -22.7415 -7.7689 -37.6711 2.4220 -19.9355 35.9461 18.1823 -0.0000 28.6088 -0.2479 -13.5979 -1.0543 32.8623 0.0000 -24.3270 -6.7958 3.6235 2.8853 -2.1131 -0.0000 0.0000 -7.5736 9.1234 -14.1649 7.0935 -0.0000 -0.0000 -5.6468 -8.3890 -1.6460 1.5311 -0.0000 0.0000 -11.1822 -6.1272 -5.2603 -0.4608 0.0000 -0.0000
 -8.9179 32.7175 -3.7729 46.7536 -74.2710 44.0583 -12.7775 4.5411 0.9643 -9.0583 -6.0438 11.7060 9.6632 22.2793 25.5242 -33.0156 -0.4368 -30.2470 -14.0881 -0.0000 7.8014 -0.9243 29.5052 1.8762 33.1476 -0.0000 26.2537 -22.7341 -7.7611 -37.6772 2.3988 -19.9638 35.9594 18.1905 -0.0000 28.6508 -0.2375 -13.5748 -1.0117 32.8623 0.0000 -24.3270 -6.8001 3.6147 2.8774 -2.0945 -0.0000 -0.0000 -7.5575 9.1572 -14.2019 7.0279 -0.0000 0.0000 -5.6463 -8.4065 -1.6566 1.5274 -0.0000 0.0000 -11.1857 -6.1263 -5.2226 -0.4316 -0.0000 -0.0000
 -8.9173 32.7174 -3.7671 46.7348 -74.2713 44.0411 -12.7706 4.5525 0.9673 -9.0265 -6.0517 11.6816 9.6418 22.2672 25.5238 -33.0148 -0.4361 -30.2308 -14.0829 -0.0000 7.8469 -0.9179 29.5140 1.8627 33.1476 -0.0000 26.2537 -22.7474 -7.7617 -37.6766 2.3904 -19.9587 35.9592 18.1873 -0.0000 28.6581 -0.2337 -13.5841 -0.9951 32.8623 0.0000 -24.3270 -6.7927 3.5941 2.8656 -2.1034 -0.0000 -0.0000 -7.5911 9.1175 -14.1336 7.1122 0.0000 -0.0000 -5.6413 -8.4273 -1.6681 1.5061 -0.0000 -0.0000 -11.1717 -6.0661 -5.2571 -0.4891 0.0000 0.0000
 -8.9170 32.7169 -3.7625 46.7323 -74.2697 44.0380 -12.7743 4.5553 0.9691 -8.9862 -6.0560 11.6606 9.6440 22.2610 25.5098 -32.8403 -0.5077 -30.1716 -14.1166 -0.0000 7.6334 -0.8992 29.4593 1.8279 33.1476 -0.0000 26.2537 -22.7469 -7.7541 -37.6822 2.3786 -19.9615 35.9762 18.1833 -0.0000 28.6737 -0.2336 -13.5900 -0.9941 32.8623 0.0000 -24.3270 -6.7874 3.5643 2.8600 -2.1044 0.0000 -0.0000 -7.5722 9.1699 -14.1835 7.0360 -0.0000 0.0000 -5.6386 -8.4402 -1.6773 1.4987 0.0000 0.0000 -11.1580 -6.0500 -5.2326 -0.5564 0.0000 0.0000
 -8.9165 32.7167 -3.7566 46.7071 -74.2673 44.0188 -12.7695 4.5637 0.9640 -8.9535 -6.0665 11.6404 9.6380 22.2723 25.5121 -32.9395 -0.4977 -30.1836 -14.0689 -0.0000 7.7527 -0.9372 29.6676 1.8929 33.1476 -0.0000 26.2537 -22.7393 -7.7586 -37.6871 2.3374 -19.9873 35.9897 18.1810 -0.0000 28.7185 -0.2392 -13.6007 -1.0170 32.8623 0.0000 -24.3270 -6.7827 3.5579 2.8423 -2.1083 -0.0000 0.0000 -7.5794 9.1644 -14.1555 7.0327 -0.0000 -0.0000 -5.6324 -8.4444 -1.6935 1.4922 -0.0000 0.0000 -11.1554 -6.0495 -5.2269 -0.5166 0.0000 0.0000
 -8.9156 32.7168 -3.7508 46.7248 -74.2662 44.0436 -12.7750 4.5763 0.9538 -8.9134 -6.0925 11.6094 9.6253 22.2670 25.5276 -32.8976 -0.5057 -30.1767 -14.0871 -0.0000 7.7606 -0.8969 29.4975 1.8211 33.1476 -0.0000 26.2537 -22.7492 -7.7560 -37.6824 2.3592 -19.9565 36.0087 18.1936 -0.0000 28.6533 -0.2255 -13.8676 -0.9407 32.8623 0.0000 -24.3270 -6.7905 3.5647 2.8249 -2.1041 -0.0000 -0.0000 -7.5925 9.1103 -14.1507 7.0508 0.0000 0.0000 -5.6441 -8.4352 -1.7122 1.5022 -0.0000 0.0000 -11.1627 -6.0728 -5.1912 -0.4982 0.0000 0.0000
 -8.9151 32.7165 -3.7458 46.7482 -74.2739 44.0634 -12.7772 4.5878 0.9635 -8.8688 -6.1022 11.5719 9.6418 22.2704 25.5073 -32.8534 -0.5424 -30.1426 -14.0859 -0.0000 7.7276 -0.9186 29.4979 1.8651 33.1476 -0.0000 26.2537 -22.7332 -7.7513 -37.6869 2.3333 -19.9677 36.0248 18.1943 -0.0000 28.6689 -0.2273 -13.8785 -0.9475 32.8623 0.0000 -24.3270 -6.7818 3.5526 2.8192 -2.1050 -0.0000 -0.0000 -7.5971 9.1815 -14.1394 7.0519 0.0000 0.0000 -5.6605 -8.3858 -1.7216 1.5413 0.0000 -0.0000 -11.1910 -6.0992 -5.1967 -0.4609 0.0000 0.0000
 -8.9144 32.7164 -3.7398 46.7388 -74.2725 44.0565 -12.7734 4.6027 0.9612 -8.8324 -6.1307 11.5478 9.6546 22.2922 25.5203 -32.9059 -0.5645 -30.1681 -14.0337 -0.0000 7.7710 -0.9331 29.4611 1.8965 33.1476 -0.0000 26.2537 -22.7342 -7.7638 -37.6745 2.3571 -19.9198 36.0161 18.1416 -0.0000 28.5764 -0.2796 -13.7444 -1.1765 32.8623 0.0000 -24.3270 -6.7781 3.5477 2.8060 -2.1081 0.0000 -0.0000 -7.5952 9.1695 -14.1012 7.0151 0.0000 0.0000 -5.6569 -8.3825 -1.7317 1.5311 0.0000 0.0000 -11.1829 -6.1277 -5.1886 -0.4880 0.0000 -0.0000
 -8.9143 32.7162 -3.7332 46.7233 -74.2737 44.0460 -12.7698 4.6148 0.9551 -8.7999 -6.1488 11.5299 9.6604 22.2935 25.5159 -32.8985 -0.5857 -30.1487 -14.0191 -0.0000 7.8014 -0.9330 29.4230 1.8987 33.1476 -0.0000 26.2537 -22.7316 -7.7672 -37.6618 2.3516 -19.9140 36.0037 18.1312 -0.0000 28.5891 -0.2688 -13.6962 -1.1351 32.8623 0.0000 -24.3270 -6.7737 3.5589 2.7897 -2.1077 0.0000 -0.0000 -7.6005 9.1399 -14.1025 7.0093 -0.0000 -0.0000 -5.6468 -8.3868 -1.7459 1.5203 -0.0000 0.0000 -11.1885 -6.1286 -5.1550 -0.4533 0.0000 -0.0000
 -8.9142 32.7156 -3.7264 46.7007 -74.2758 44.0271 -12.7635 4.6340 0.9546 -8.7548 -6.1719 11.5167 9.6908 22.3009 25.4918 -32.8922 -0.6503 -30.1220 -13.9869 -0.0000 7.7879 -0.9448 29.4439 1.9214 33.1476 -0.0000 26.2537 -22.7230 -7.7656 -37.6579 2.3539 -19.9298 35.9916 18.1712 -0.0000 28.6490 -0.1983 -13.8514 -0.8282 32.8623 0.0000 -24.3270 -6.7580 3.5423 2.7749 -2.1181 -0.0000 -0.0000 -7.6130 9.1330 -14.0303 7.0140 -0.0000 -0.0000 -5.6360 -8.4161 -1.7572 1.5038 -0.0000 0.0000 -11.1684 -6.1158 -5.2074 -0.4678 0.0000 0.0000
 -8.9143 32.7153 -3.7202 46.6984 -74.2777 44.0190 -12.7629 4.6501 0.9643 -8.7160 -6.1866 11.4934 9.7017 22.2882 25.4648 -32.8252 -0.7028 -30.0666 -13.9853 -0.0000 7.7509 -0.9204 29.4512 1.8714 33.1476 -0.0000 26.2537 -22.7161 -7.7615 -37.6490 2.3563 -19.9361 35.9709 18.1726 -0.0000 28.7118 -0.1777 -13.7444 -0.7479 32.8623 0.0000 -24.3270 -6.7459 3.5577 2.7713 -2.1300 0.0000 0.0000 -7.6212 9.1189 -14.1089 7.0652 0.0000 -0.0000 -5.6324 -8.4188 -1.7609 1.5074 0.0000 -0.0000 -11.1758 -6.1146 -5.1750 -0.4416 -0.0000 -0.0000
 -8.9102 32.7155 -3.7143 46.7766 -74.2829 44.0857 -12.7666 4.6846 0.9829 -8.6897 -6.1938 11.4739 9.7255 22.2878 25.4399 -32.7984 -0.7614 -30.0395 -13.9779 -0.0000 7.7745 -0.9350 29.5333 1.8964 33.1476 -0.0000 26.2537 -22.7145 -7.7466 -37.6357 2.3666 -19.9638 35.9388 18.1948 -0.0000 28.7716 -0.1624 -13.6870 -0.6865 32.8623 0.0000 -24.3270 -6.7646 3.5739 2.7711 -2.1165 0.0000 -0.0000 -7.6241 9.1233 -14.0590 7.0715 0.0000 0.0000 -5.6597 -8.4056 -1.7637 1.5210 0.0000 0.0000 -11.1505 -6.1103 -5.2021 -0.5189 0.0000 0.0000
 -8.9125 32.7148 -3.7075 46.7050 -74.2723 44.0208 -12.7655 4.6917 0.9678 -8.6458 -6.2198 11.4649 9.7435 22.2816 25.4236 -32.6875 -0.8583 -29.9811 -13.9756 -0.0000 7.6726 -0.9015 29.5207 1.8291 33.1476 -0.0000 26.2537 -22.7228 -7.7466 -37.6269 2.4033 -19.9446 35.9194 18.1725 -0.0000 28.7915 -0.1566 -13.6611 -0.6630 32.8623 0.0000 -24.3270 -6.7410 3.5442 2.7534 -2.1361 0.0000 -0.0000 -7.6161 9.1524 -14.0661 7.0537 -0.0000 -0.0000 -5.6446 -8.4569 -1.7761 1.4899 0.0000 -0.0000 -11.1304 -6.1485 -5.3004 -0.5277 0.0000 0.0000
 -8.9080 32.7146 -3.6994 46.7715 -74.2768 44.0954 -12.7611 4.7337 0.9673 -8.6269 -6.2476 11.4200 9.7666 22.2779 25.4061 -32.6917 -0.8861 -29.9624 -13.9776 -0.0000 7.6784 -0.8738 29.5430 1.7717 33.1476 -0.0000 26.2537 -22.7180 -7.7597 -37.6193 2.4138 -19.9154 35.8901 18.1530 -0.0000 28.7712 -0.1480 -13.5855 -0.6300 32.8623 0.0000 -24.3270 -6.7437 3.5478 2.7257 -2.1774 0.0000 -0.0000 -7.5875 9.1066 -14.0487 7.0278 0.0000 -0.0000 -5.6767 -8.3902 -1.8035 1.5426 -0.0000 0.0000 -11.1679 -6.1387 -5.2318 -0.4446 -0.0000 -0.0000
 -8.9064 32.7142 -3.6921 46.7477 -74.2622 44.0734 -12.7629 4.7404 0.9684 -8.6001 -6.2633 11.3935 9.8007 22.2774 25.3983 -32.7264 -0.8852 -29.9502 -13.9796 -0.0000 7.7237 -0.7892 29.5202 1.6014 33.1476 -0.0000 26.2537 -22.7110 -7.7547 -37.6298 2.4209 -19.9290 35.8856 18.1743 -0.0000 28.7877 -0.1278 -13.6380 -0.5421 32.8623 0.0000 -24.3270 -6.7443 3.5247 2.7109 -2.1894 -0.0000 0.0000 -7.5840 9.0981 -14.0241 7.0118 0.0000 0.0000 -5.6876 -8.4105 -1.8198 1.5520 -0.0000 0.0000 -11.1784 -6.1315 -5.2197 -0.4236 0.0000 -0.0000
 -8.9051 32.7140 -3.6849 46.7179 -74.2554 44.0472 -12.7553 4.7325 0.9700 -8.5829 -6.2553 11.3642 9.8187 22.2844 25.3892 -32.7093 -0.9043 -29.9380 -13.9765 -0.0000 7.7134 -0.7790 29.4934 1.5819 33.1476 -0.0000 26.2537 -22.6937 -7.7612 -37.6375 2.4534 -19.8562 35.9105 18.1347 -0.0000 28.5606 -0.1673 -13.7412 -0.7043 32.8623 0.0000 -24.3270 -6.7320 3.4988 2.6950 -2.1968 0.0000 0.0000 -7.5889 9.1832 -13.9752 7.0707 0.0000 -0.0000 -5.6961 -8.4427 -1.8353 1.5412 -0.0000 0.0000 -11.1500 -6.1848 -5.2792 -0.5475 -0.0000 0.0000
 -8.9022 32.7140 -3.6767 46.6870 -74.2294 44.0316 -12.7587 4.7227 0.9595 -8.5715 -6.2733 11.3154 9.8497 22.2993 25.3699 -32.7800 -0.9115 -29.9332 -13.9388 -0.0000 7.7710 -0.7466 29.4416 1.5186 33.1476 -0.0000 26.2537 -22.7027 -7.7681 -37.6486 2.4553 -19.8209 35.8955 18.1178 -0.0000 28.5602 -0.1631 -13.6922 -0.6888 32.8623 0.0000 -24.3270 -6.7187 3.4053 2.6665 -2.2488 -0.0000 0.0000 -7.5395 9.2507 -14.0486 7.0217 0.0000 -0.0000 -5.7167 -8.4291 -1.8682 1.5759 0.0000 -0.0000 -11.1941 -6.1712 -5.1994 -0.4102 -0.0000 -0.0000
 -8.9002 32.7138 -3.6698 46.6700 -74.2167 44.0130 -12.7554 4.7190 0.9672 -8.5690 -6.2834 11.2718 9.8701 22.3049 25.3655 -32.7834 -0.9209 -29.9280 -13.9367 -0.0000 7.7124 -0.7241 29.4305 1.4734 33.1476 -0.0000 26.2537 -22.7006 -7.7607 -37.6628 2.4619 -19.8128 35.8753 18.1386 -0.0000 28.6487 -0.0948 -13.7333 -0.3994 32.8623 0.0000 -24.3270 -6.7111 3.3817 2.6556 -2.2780 0.0000 0.0000 -7.5407 9.2501 -14.0002 7.0539 0.0000 -0.0000 -5.7291 -8.4173 -1.8806 1.5901 0.0000 -0.0000 -11.1959 -6.1946 -5.1749 -0.4098 -0.0000 -0.0000
 -8.9005 32.7130 -3.6639 46.6146 -74.2069 43.9469 -12.7470 4.6998 0.9880 -8.5662 -6.2905 11.2245 9.8807 22.3077 25.3567 -32.7468 -0.9511 -29.9123 -13.9181 -0.0000 7.7056 -0.7104 29.3383 1.4495 33.1476 -0.0000 26.2537 -22.6778 -7.7758 -37.6805 2.4266 -19.7808 35.8659 18.1285 -0.0000 28.6699 -0.0838 -13.7081 -0.3537 32.8623 0.0000 -24.3270 -6.7024 3.4224 2.6581 -2.2915 -0.0000 -0.0000 -7.5241 9.1767 -14.0481 6.9883 -0.0000 0.0000 -5.7276 -8.4696 -1.8769 1.5763 0.0000 -0.0000 -11.1638 -6.2242 -5.2927 -0.5081 0.0000 -0.0000
